<svg width="29" height="29" viewBox="0 0 29 29" fill="none" xmlns="http://www.w3.org/2000/svg">
<circle cx="14.6943" cy="14.1182" r="13.5" stroke="#FFFFFC"/>
<path d="M20.997 8.4292C19.8376 7.90632 18.5948 7.51985 17.2952 7.30009C17.2836 7.29787 17.2717 7.2993 17.2609 7.30418C17.2502 7.30907 17.2413 7.31717 17.2353 7.32737C17.0762 7.60699 16.8989 7.97149 16.7746 8.25945C15.3962 8.05351 13.9949 8.05351 12.6166 8.25945C12.4782 7.94032 12.3221 7.62914 12.149 7.32737C12.1432 7.31705 12.1343 7.30876 12.1236 7.30362C12.1129 7.29847 12.1009 7.29671 12.0892 7.29857C10.7903 7.51833 9.54753 7.90481 8.38735 8.42844C8.37737 8.43263 8.36891 8.43977 8.3631 8.4489C6.00485 11.9158 5.35846 15.2971 5.67597 18.6359C5.67686 18.6441 5.67939 18.652 5.68343 18.6592C5.68747 18.6663 5.69292 18.6726 5.69946 18.6776C7.07591 19.6797 8.61116 20.4431 10.2409 20.9358C10.2523 20.9393 10.2644 20.9393 10.2758 20.9358C10.2871 20.9323 10.2972 20.9254 10.3046 20.9161C10.6547 20.4463 10.9669 19.9499 11.2336 19.4286C11.2495 19.3982 11.2344 19.3619 11.2026 19.3497C10.713 19.1654 10.2387 18.9429 9.78397 18.6844C9.77579 18.6797 9.76891 18.6731 9.76393 18.6651C9.75895 18.6572 9.75602 18.6481 9.75542 18.6387C9.75482 18.6293 9.75656 18.6199 9.76048 18.6113C9.76441 18.6028 9.77039 18.5953 9.7779 18.5897C9.87339 18.5192 9.96887 18.4457 10.0598 18.3722C10.068 18.3656 10.0778 18.3614 10.0883 18.36C10.0987 18.3587 10.1093 18.3603 10.1189 18.3646C13.0948 19.7014 16.3177 19.7014 19.2586 18.3646C19.2683 18.36 19.279 18.3582 19.2896 18.3594C19.3001 18.3606 19.3102 18.3648 19.3185 18.3714C19.4094 18.4457 19.5042 18.5192 19.6004 18.5897C19.608 18.5952 19.6141 18.6026 19.6181 18.6111C19.6222 18.6195 19.6241 18.6289 19.6236 18.6383C19.6232 18.6477 19.6204 18.6568 19.6155 18.6648C19.6107 18.6729 19.6039 18.6796 19.5959 18.6844C19.1427 18.9451 18.6714 19.1656 18.1765 19.349C18.1689 19.3517 18.162 19.3561 18.1562 19.3617C18.1504 19.3674 18.1459 19.3742 18.143 19.3817C18.14 19.3893 18.1387 19.3973 18.1392 19.4054C18.1396 19.4135 18.1417 19.4214 18.1455 19.4286C18.4183 19.9492 18.7305 20.4448 19.0737 20.9153C19.0809 20.925 19.0908 20.9322 19.1022 20.936C19.1136 20.9398 19.1259 20.94 19.1374 20.9366C20.77 20.4452 22.3077 19.6815 23.6857 18.6776C23.6924 18.6729 23.698 18.6668 23.7022 18.6597C23.7064 18.6527 23.709 18.6448 23.7099 18.6367C24.0888 14.7765 23.0749 11.4225 21.0205 8.45042C21.0155 8.44076 21.0071 8.43323 20.997 8.4292ZM11.6784 16.6027C10.7827 16.6027 10.0439 15.7927 10.0439 14.7992C10.0439 13.805 10.7683 12.9957 11.6784 12.9957C12.5954 12.9957 13.3274 13.8118 13.313 14.7992C13.313 15.7934 12.5886 16.6027 11.6784 16.6027ZM17.7218 16.6027C16.8254 16.6027 16.0873 15.7927 16.0873 14.7992C16.0873 13.805 16.811 12.9957 17.7218 12.9957C18.6388 12.9957 19.3708 13.8118 19.3564 14.7992C19.3564 15.7934 18.6395 16.6027 17.7218 16.6027Z" fill="white"/>
</svg>
