<svg width="14" height="12" viewBox="0 0 14 12" fill="none" xmlns="http://www.w3.org/2000/svg">
<mask id="path-1-inside-1_6_163" fill="white">
<path d="M12.73 2.49378C12.5338 2.03965 12.251 1.62812 11.8974 1.28223C11.5435 0.935307 11.1262 0.659614 10.6683 0.47014C10.1934 0.272888 9.68415 0.171923 9.16996 0.173106C8.44859 0.173106 7.74478 0.370641 7.13315 0.743762C6.98683 0.833019 6.84783 0.931055 6.71614 1.03787C6.58445 0.931055 6.44544 0.833019 6.29912 0.743762C5.68749 0.370641 4.98368 0.173106 4.26231 0.173106C3.74287 0.173106 3.23952 0.272605 2.76397 0.47014C2.30452 0.660359 1.89043 0.933981 1.53487 1.28223C1.18076 1.62773 0.897896 2.03935 0.702296 2.49378C0.498908 2.9664 0.39502 3.46828 0.39502 3.9848C0.39502 4.47205 0.494519 4.97979 0.692054 5.49631C0.857398 5.92796 1.09444 6.3757 1.39733 6.82784C1.87726 7.54335 2.53718 8.2896 3.35658 9.04608C4.71445 10.3001 6.05915 11.1663 6.11622 11.2014L6.463 11.4238C6.61664 11.5219 6.81417 11.5219 6.96781 11.4238L7.31459 11.2014C7.37166 11.1648 8.7149 10.3001 10.0742 9.04608C10.8936 8.2896 11.5535 7.54335 12.0335 6.82784C12.3364 6.3757 12.5749 5.92796 12.7388 5.49631C12.9363 4.97979 13.0358 4.47205 13.0358 3.9848C13.0373 3.46828 12.9334 2.9664 12.73 2.49378Z"/>
</mask>
<path d="M11.8974 1.28223L11.1974 1.99635L11.1982 1.99713L11.8974 1.28223ZM10.6683 0.47014L10.2847 1.39363L10.286 1.39417L10.6683 0.47014ZM9.16996 0.173106V1.17311L9.17226 1.1731L9.16996 0.173106ZM7.13315 0.743762L7.65391 1.59747L7.65394 1.59745L7.13315 0.743762ZM6.71614 1.03787L6.08619 1.81451L6.71614 2.32547L7.34608 1.81451L6.71614 1.03787ZM6.29912 0.743762L5.77833 1.59745L5.77836 1.59747L6.29912 0.743762ZM2.76397 0.47014L3.1465 1.39409L3.14758 1.39364L2.76397 0.47014ZM1.53487 1.28223L2.23323 1.99798L2.23459 1.99665L1.53487 1.28223ZM0.702296 2.49378L-0.216227 2.09841L-0.21626 2.09848L0.702296 2.49378ZM0.692054 5.49631L-0.241972 5.85351L-0.241781 5.85401L0.692054 5.49631ZM1.39733 6.82784L0.566519 7.3844L0.566847 7.38489L1.39733 6.82784ZM3.35658 9.04608L4.03502 8.31143L4.03491 8.31133L3.35658 9.04608ZM6.11622 11.2014L6.65608 10.3597L6.64824 10.3546L6.64031 10.3497L6.11622 11.2014ZM6.463 11.4238L5.92314 12.2656L5.92509 12.2668L6.463 11.4238ZM6.96781 11.4238L7.50573 12.2668L7.50767 12.2656L6.96781 11.4238ZM7.31459 11.2014L6.77493 10.3595L6.77473 10.3597L7.31459 11.2014ZM10.0742 9.04608L10.7523 9.7811L10.7526 9.78084L10.0742 9.04608ZM12.0335 6.82784L12.864 7.38489L12.8643 7.3844L12.0335 6.82784ZM12.7388 5.49631L11.8047 5.1391L11.8039 5.14136L12.7388 5.49631ZM13.0358 3.9848L12.0358 3.98197V3.9848H13.0358ZM13.648 2.09729C13.4003 1.52381 13.0432 1.00412 12.5966 0.56733L11.1982 1.99713C11.4589 2.25211 11.6674 2.55548 11.8119 2.89026L13.648 2.09729ZM12.5974 0.568109C12.152 0.131515 11.6269 -0.21544 11.0506 -0.453888L10.286 1.39417C10.6255 1.53467 10.935 1.7391 11.1974 1.99635L12.5974 0.568109ZM11.0519 -0.453352C10.4548 -0.701409 9.81428 -0.82838 9.16766 -0.826891L9.17226 1.1731C9.55401 1.17222 9.93213 1.24718 10.2847 1.39363L11.0519 -0.453352ZM9.16996 -0.826894C8.26568 -0.826894 7.38156 -0.579169 6.61237 -0.109923L7.65394 1.59745C8.108 1.32045 8.6315 1.17311 9.16996 1.17311V-0.826894ZM6.6124 -0.109941C6.42841 0.00228809 6.25289 0.126018 6.08619 0.261228L7.34608 1.81451C7.44276 1.73609 7.54525 1.66375 7.65391 1.59747L6.6124 -0.109941ZM7.34608 0.261228C7.17938 0.126018 7.00386 0.00228809 6.81988 -0.109941L5.77836 1.59747C5.88702 1.66375 5.98951 1.73609 6.08619 1.81451L7.34608 0.261228ZM6.81991 -0.109923C6.05071 -0.579169 5.16659 -0.826894 4.26231 -0.826894V1.17311C4.80077 1.17311 5.32427 1.32045 5.77833 1.59745L6.81991 -0.109923ZM4.26231 -0.826894C3.61296 -0.826894 2.97911 -0.702063 2.38037 -0.453357L3.14758 1.39364C3.49994 1.24727 3.87278 1.17311 4.26231 1.17311V-0.826894ZM2.38145 -0.453805C1.8037 -0.214608 1.28196 0.130191 0.83515 0.567809L2.23459 1.99665C2.4989 1.73777 2.80535 1.53533 3.1465 1.39409L2.38145 -0.453805ZM0.836513 0.566478C0.388768 1.00334 0.0310978 1.52382 -0.216227 2.09841L1.62082 2.88914C1.7647 2.55489 1.97276 2.25211 2.23323 1.99798L0.836513 0.566478ZM-0.21626 2.09848C-0.473236 2.69563 -0.60498 3.33199 -0.60498 3.9848H1.39502C1.39502 3.60457 1.47105 3.23716 1.62085 2.88907L-0.21626 2.09848ZM-0.60498 3.9848C-0.60498 4.60897 -0.477495 5.23766 -0.241972 5.85351L1.62608 5.1391C1.46653 4.72191 1.39502 4.33514 1.39502 3.9848H-0.60498ZM-0.241781 5.85401C-0.0454904 6.36645 0.228962 6.88051 0.566519 7.3844L2.22813 6.27128C1.95992 5.8709 1.76029 5.48946 1.62589 5.1386L-0.241781 5.85401ZM0.566847 7.38489C1.10124 8.18159 1.81772 8.98638 2.67825 9.78084L4.03491 8.31133C3.25663 7.59281 2.65328 6.90511 2.22781 6.27079L0.566847 7.38489ZM2.67814 9.78073C4.09637 11.0905 5.49712 11.9946 5.59212 12.0531L6.64031 10.3497C6.64564 10.353 6.56575 10.3024 6.41469 10.1996C6.26839 10.1 6.06263 9.9563 5.81706 9.77551C5.32438 9.41281 4.67932 8.90643 4.03502 8.31143L2.67814 9.78073ZM5.57636 12.0432L5.92314 12.2656L7.00286 10.5821L6.65608 10.3597L5.57636 12.0432ZM5.92509 12.2668C6.40678 12.5742 7.02403 12.5742 7.50572 12.2668L6.4299 10.5808C6.60432 10.4695 6.82649 10.4695 7.00091 10.5808L5.92509 12.2668ZM7.50767 12.2656L7.85445 12.0432L6.77473 10.3597L6.42795 10.5821L7.50767 12.2656ZM7.85426 12.0433C7.93113 11.994 9.33034 11.0928 10.7523 9.7811L9.39618 8.31107C8.09945 9.50729 6.81219 10.3356 6.77493 10.3595L7.85426 12.0433ZM10.7526 9.78084C11.6131 8.98638 12.3296 8.18159 12.864 7.38489L11.203 6.27079C10.7775 6.90511 10.1742 7.59281 9.3959 8.31133L10.7526 9.78084ZM12.8643 7.3844C13.2007 6.88226 13.4778 6.36714 13.6736 5.85125L11.8039 5.14136C11.672 5.48878 11.4721 5.86915 11.2027 6.27128L12.8643 7.3844ZM13.6728 5.85351C13.9083 5.23766 14.0358 4.60897 14.0358 3.9848H12.0358C12.0358 4.33513 11.9643 4.72191 11.8047 5.1391L13.6728 5.85351ZM14.0358 3.98763C14.0376 3.3329 13.9055 2.69561 13.6485 2.09848L11.8114 2.88907C11.9612 3.23718 12.0369 3.60366 12.0358 3.98197L14.0358 3.98763Z" fill="#00A2FF" mask="url(#path-1-inside-1_6_163)"/>
</svg>
