<svg width="29" height="29" viewBox="0 0 29 29" fill="none" xmlns="http://www.w3.org/2000/svg">
<circle cx="14.6943" cy="14.1182" r="13.5" stroke="#FFFFFC"/>
<g clip-path="url(#clip0_11_95)">
<path d="M22.5627 10.8851C22.5539 10.2224 22.4298 9.56624 22.1961 8.94606C21.9934 8.42295 21.6838 7.94786 21.2871 7.55116C20.8904 7.15447 20.4153 6.84488 19.8922 6.64219C19.28 6.41237 18.6332 6.28811 17.9794 6.27469C17.1377 6.23706 16.8708 6.22656 14.7341 6.22656C12.5973 6.22656 12.3234 6.22656 11.4878 6.27469C10.8343 6.28821 10.1879 6.41247 9.57595 6.64219C9.05275 6.84474 8.57759 7.15428 8.18087 7.55099C7.78416 7.94771 7.47462 8.42286 7.27207 8.94606C7.0418 9.5578 6.9178 10.2044 6.90545 10.8579C6.86782 11.7006 6.85645 11.9674 6.85645 14.1042C6.85645 16.2409 6.85645 16.5139 6.90545 17.3504C6.91857 18.0049 7.04195 18.6507 7.27207 19.2641C7.47496 19.7871 7.78473 20.2621 8.18158 20.6586C8.57842 21.0552 9.05363 21.3646 9.57682 21.5671C10.1871 21.8061 10.8336 21.9393 11.4887 21.9608C12.3313 21.9984 12.5982 22.0098 14.7349 22.0098C16.8717 22.0098 17.1456 22.0098 17.9812 21.9608C18.635 21.9479 19.2818 21.824 19.8939 21.5942C20.4169 21.3913 20.8919 21.0816 21.2886 20.6849C21.6852 20.2883 21.9949 19.8133 22.1978 19.2903C22.4279 18.6778 22.5513 18.0321 22.5644 17.3767C22.6021 16.5349 22.6134 16.2681 22.6134 14.1304C22.6117 11.9937 22.6117 11.7224 22.5627 10.8851ZM14.7288 18.1449C12.4941 18.1449 10.6837 16.3346 10.6837 14.0998C10.6837 11.8651 12.4941 10.0547 14.7288 10.0547C15.8017 10.0547 16.8305 10.4809 17.5892 11.2395C18.3478 11.9981 18.7739 13.027 18.7739 14.0998C18.7739 15.1726 18.3478 16.2015 17.5892 16.9601C16.8305 17.7188 15.8017 18.1449 14.7288 18.1449ZM18.9349 10.8483C18.811 10.8484 18.6883 10.8241 18.5738 10.7767C18.4594 10.7294 18.3553 10.6599 18.2677 10.5723C18.1801 10.4847 18.1106 10.3807 18.0633 10.2662C18.0159 10.1517 17.9916 10.029 17.9917 9.90506C17.9917 9.78125 18.0161 9.65865 18.0635 9.54426C18.1108 9.42988 18.1803 9.32594 18.2678 9.23839C18.3554 9.15085 18.4593 9.0814 18.5737 9.03402C18.6881 8.98664 18.8107 8.96225 18.9345 8.96225C19.0583 8.96225 19.1809 8.98664 19.2953 9.03402C19.4097 9.0814 19.5136 9.15085 19.6012 9.23839C19.6887 9.32594 19.7582 9.42988 19.8056 9.54426C19.8529 9.65865 19.8773 9.78125 19.8773 9.90506C19.8773 10.4266 19.4556 10.8483 18.9349 10.8483Z" fill="white"/>
<path d="M14.7287 16.7274C16.1799 16.7274 17.3563 15.551 17.3563 14.0998C17.3563 12.6486 16.1799 11.4722 14.7287 11.4722C13.2775 11.4722 12.1011 12.6486 12.1011 14.0998C12.1011 15.551 13.2775 16.7274 14.7287 16.7274Z" fill="white"/>
</g>
<defs>
<clipPath id="clip0_11_95">
<rect width="16" height="17" fill="white" transform="translate(6.69434 5.61816)"/>
</clipPath>
</defs>
</svg>
