<svg width="29" height="29" viewBox="0 0 29 29" fill="none" xmlns="http://www.w3.org/2000/svg">
<circle cx="14.6943" cy="14.1182" r="13.5" stroke="#FFFFFC"/>
<g clip-path="url(#clip0_11_86)">
<path d="M22.9418 9.11536C22.3504 9.37745 21.715 9.55453 21.047 9.63457C21.7362 9.22217 22.2519 8.57311 22.4977 7.80849C21.8502 8.1931 21.1415 8.46383 20.4024 8.6089C19.9055 8.07827 19.2472 7.72655 18.5298 7.60836C17.8125 7.49018 17.0762 7.61213 16.4352 7.95529C15.7943 8.29845 15.2846 8.84362 14.9852 9.50615C14.6859 10.1687 14.6136 10.9115 14.7797 11.6193C13.4676 11.5534 12.1841 11.2124 11.0124 10.6184C9.84064 10.0243 8.80691 9.19056 7.97827 8.17115C7.69494 8.6599 7.53202 9.22657 7.53202 9.83007C7.53171 10.3734 7.6655 10.9083 7.92152 11.3875C8.17755 11.8667 8.54789 12.2753 8.99969 12.577C8.47572 12.5603 7.96331 12.4187 7.50511 12.164V12.2065C7.50505 12.9685 7.76863 13.707 8.25111 14.2968C8.73359 14.8866 9.40526 15.2913 10.1521 15.4422C9.66608 15.5737 9.15647 15.5931 8.66182 15.4989C8.87254 16.1545 9.28302 16.7278 9.83578 17.1386C10.3885 17.5494 11.0559 17.777 11.7445 17.7896C10.5756 18.7072 9.13207 19.2049 7.64607 19.2027C7.38284 19.2028 7.11983 19.1874 6.8584 19.1567C8.36678 20.1265 10.1226 20.6412 11.9159 20.6392C17.9863 20.6392 21.3049 15.6115 21.3049 11.251C21.3049 11.1093 21.3013 10.9662 21.2949 10.8246C21.9404 10.3578 22.4976 9.7797 22.9404 9.11749L22.9418 9.11536Z" fill="white"/>
</g>
<defs>
<clipPath id="clip0_11_86">
<rect width="17" height="17" fill="white" transform="translate(6.19434 5.61816)"/>
</clipPath>
</defs>
</svg>
